<?xml version="1.0" standalone="no"?>
<!DOCTYPE svg PUBLIC "-//W3C//DTD SVG 20010904//EN"
 "http://www.w3.org/TR/2001/REC-SVG-20010904/DTD/svg10.dtd">
<svg version="1.0" xmlns="http://www.w3.org/2000/svg"
 width="260.000000pt" height="260.000000pt" viewBox="0 0 260.000000 260.000000"
 preserveAspectRatio="xMidYMid meet">
<metadata>
Created by potrace 1.11, written by Peter Selinger 2001-2013
</metadata>
<g transform="translate(0.000000,260.000000) scale(0.100000,-0.100000)"
fill="#000000" stroke="none">
<path d="M1184 2521 c-18 -11 -38 -29 -46 -40 -9 -12 -33 -41 -54 -64 -48 -52
-186 -205 -474 -527 -56 -63 -108 -119 -114 -125 -6 -5 -36 -39 -66 -74 -30
-36 -64 -74 -75 -86 -18 -19 -118 -130 -208 -231 -47 -53 -98 -165 -125 -275
-46 -187 -7 -358 110 -485 81 -88 80 -87 628 -249 124 -37 275 -82 335 -100
388 -119 427 -127 460 -98 12 10 122 140 245 288 264 319 407 491 436 525 12
14 81 97 154 185 72 88 140 170 150 182 39 46 43 67 26 133 -14 54 -14 107 1
159 27 95 -8 155 -92 155 -45 0 -80 -33 -101 -97 -18 -53 -24 -174 -12 -218 8
-26 -5 -43 -290 -384 -31 -37 -365 -439 -411 -495 -25 -30 -48 -57 -51 -60 -3
-3 -36 -42 -74 -88 -74 -90 -75 -90 -156 -62 -41 14 -739 221 -890 264 -25 7
-73 21 -108 31 -116 34 -169 104 -179 237 -9 114 22 188 88 205 47 12 53 11
234 -42 88 -25 189 -55 225 -64 36 -10 193 -56 350 -101 157 -46 296 -84 309
-86 41 -5 85 21 131 77 25 29 59 69 76 89 18 19 51 58 75 86 56 65 151 174
164 188 9 9 207 238 465 536 41 48 114 131 161 186 118 136 125 154 94 215
-14 27 -41 44 -85 54 -43 11 -829 187 -850 191 -14 3 -54 12 -90 20 -36 9 -76
18 -90 20 -14 3 -62 14 -106 24 -102 25 -131 25 -170 1z m323 -446 c147 -36
315 -77 373 -91 58 -14 115 -32 128 -40 21 -14 21 -16 7 -42 -20 -36 -85 -107
-112 -121 -35 -18 -63 -14 -281 40 -114 28 -214 52 -222 54 -49 11 -281 67
-312 76 -63 17 -65 38 -10 108 26 33 56 64 67 70 39 19 96 10 362 -54z"/>
</g>
</svg>
